Coordinates
version=1
nRows=10
nColumns=27
inDegrees=yes

Units are S.I. units (second, meters, Newtons, ...)
If the header above contains a line with 'inDegrees', this indicates whether rotational values are in degrees (yes) or radians (no).

endheader
time	pelvis_rotation	pelvis_tilt	pelvis_list	pelvis_tx	pelvis_ty	pelvis_tz	hip_flexion_r	hip_adduction_r	hip_rotation_r	knee_angle_r	knee_rotation_r	knee_adduction_r	knee_angle_r_beta	ankle_angle_r	subtalar_angle_r	mtp_angle_r	hip_flexion_l	hip_adduction_l	hip_rotation_l	knee_angle_l	knee_rotation_l	knee_adduction_l	knee_angle_l_beta	ankle_angle_l	subtalar_angle_l	mtp_angle_l
      3.06500000	      2.53004447	    -17.10703374	     -3.05444036	      0.07219408	      0.82070619	     -1.12713319	     30.86215771	    -24.64638670	    -29.13421414	     25.83945206	     -1.07043522	     -0.14554181	      0.45098352	      0.39077602	      5.61395959	      0.00000000	     37.27037214	    -26.38498927	     -3.46160247	     26.08729766	      0.13913746	      6.57997180	      0.45530924	      0.20347659	      0.56157180	      0.00000000
      3.07000000	      2.38279769	    -17.29249181	     -2.63579383	      0.07126516	      0.82037989	     -1.12754931	     31.57763754	    -25.17630794	    -28.46469766	     26.36929915	     -0.95505275	     -0.15825849	      0.46023109	      0.48063955	      5.49625904	      0.00000000	     37.34239512	    -26.01892336	     -3.86728186	     26.10555884	      0.10382892	      6.41924276	      0.45562795	      0.14241425	      0.33116706	      0.00000000
      3.07500000	      2.70109742	    -17.86831269	     -3.24557459	      0.07014698	      0.82003232	     -1.12680641	     31.95927683	    -24.68805729	    -29.08177286	     26.44585101	     -0.97278285	      0.03735208	      0.46156717	      0.35854021	      5.05357530	      0.00000000	     38.74596463	    -26.57991687	     -2.65153030	     26.68773077	      0.43024491	      6.49749644	      0.46578877	      0.26281661	      0.24604407	      0.00000000
      3.08000000	      1.94699996	    -17.89764495	     -1.97091694	      0.06885901	      0.81959051	     -1.12808626	     33.40526686	    -25.97034734	    -26.79900289	     27.48294472	     -0.71861390	     -0.23109538	      0.47966787	      0.61431007	      4.97112160	      0.00000000	     37.86091698	    -25.56647106	     -4.57157879	     26.30201282	      0.14233738	      6.18926703	      0.45905672	     -0.06875533	     -0.15351313	      0.00000000
      3.08500000	      2.54722367	    -18.59591937	     -2.91401565	      0.06765141	      0.81915785	     -1.12699385	     33.59213509	    -25.25488758	    -28.07372245	     27.46348403	     -0.75964753	      0.08264955	      0.47932822	      0.42216646	      4.48739775	      0.00000000	     39.78687518	    -26.36256245	     -2.64074619	     27.11729041	      0.59017199	      6.31493201	      0.47328600	      0.15521856	     -0.23360187	      0.00000000
      3.09000000	      2.45068641	    -19.03995706	     -2.71902153	      0.06614917	      0.81859273	     -1.12710301	     34.58355925	    -25.58732077	    -27.43739907	     28.07049029	     -0.61986592	      0.06891039	      0.48992248	      0.46986145	      4.18969081	      0.00000000	     40.42808504	    -26.24105532	     -2.61037132	     27.39795825	      0.69090675	      6.23575042	      0.47818458	      0.11160433	     -0.49838228	      0.00000000
      3.09500000	      1.64851116	    -19.38020621	     -2.10959264	      0.06431975	      0.81794113	     -1.12756632	     36.22370147	    -26.05252358	    -25.33081139	     28.93085131	     -0.47513433	     -0.22495568	      0.50493861	      0.51084952	      3.87391731	      0.00000000	     40.35461427	    -26.03831842	     -3.88117576	     27.47177853	      0.71611691	      5.97590114	      0.47947299	     -0.00678714	     -0.81662783	      0.00000000
      3.10000000	      2.19265056	    -19.90346363	     -2.18589684	      0.06306322	      0.81727457	     -1.12737502	     36.71790768	    -26.38716488	    -25.89247572	     29.41895675	     -0.26754523	      0.05705079	      0.51345766	      0.58564540	      3.55376865	      0.00000000	     41.60979439	    -25.92891518	     -2.76619264	     27.96104890	      0.89681390	      5.99765725	      0.48801237	     -0.00915079	     -1.08565911	      0.00000000
      3.10500000	      1.57552818	    -20.50541743	     -1.84693992	      0.06080882	      0.81646000	     -1.12750162	     38.46365000	    -26.61631379	    -24.08041457	     30.23626641	     -0.07359583	     -0.17368232	      0.52772240	      0.56407340	      2.96413910	      0.00000000	     42.14699074	    -25.93823786	     -3.35303825	     28.23887058	      1.06961944	      5.86463778	      0.49286127	     -0.09228290	     -1.47064202	      0.00000000
      3.11000000	      0.46364467	    -20.76092312	     -0.61547650	      0.05895989	      0.81539272	     -1.12853647	     40.66321292	    -27.56555430	    -20.85820157	     31.48898781	      0.29774906	     -0.55754789	      0.54958652	      0.82513049	      2.79480065	      0.00000000	     41.57560098	    -25.36332913	     -5.82831069	     28.29256721	      0.96298714	      5.17030795	      0.49379845	     -0.16691368	     -1.87142696	      0.00000000
